<?xml version="1.0" encoding="UTF-8"?>
<!DOCTYPE svg PUBLIC "-//W3C//DTD SVG 1.1//EN" "http://www.w3.org/Graphics/SVG/1.1/DTD/svg11.dtd">
<svg xmlns="http://www.w3.org/2000/svg" version="1.1" width="540px" height="376px" style="shape-rendering:geometricPrecision; text-rendering:geometricPrecision; image-rendering:optimizeQuality; fill-rule:evenodd; clip-rule:evenodd" xmlns:xlink="http://www.w3.org/1999/xlink">
<g><path style="opacity:0.998" fill="#363636" d="M 146.5,25.5 C 159.178,26.4485 170.845,30.2818 181.5,37C 141.84,36.0819 111.007,52.2486 89,85.5C 85.3928,92.1915 81.8928,98.8582 78.5,105.5C 66.894,115.822 55.2273,125.488 43.5,134.5C 41.9304,123.636 42.2638,112.97 44.5,102.5C 44.3433,103.873 44.51,105.207 45,106.5C 46.0084,106.018 47.175,105.852 48.5,106C 52.4659,102.701 56.1325,99.0342 59.5,95C 63.205,91.9744 67.205,89.3077 71.5,87C 81.1257,78.285 90.7924,69.4517 100.5,60.5C 110.757,52.7703 120.591,44.437 130,35.5C 130.333,35.8333 130.667,36.1667 131,36.5C 133.632,33.0701 136.799,30.2367 140.5,28C 139.5,27.6667 138.5,27.3333 137.5,27C 140.695,26.8195 143.695,26.3195 146.5,25.5 Z"/></g>
<g><path style="opacity:0.998" fill="#454545" d="M 146.5,25.5 C 143.695,26.3195 140.695,26.8195 137.5,27C 138.5,27.3333 139.5,27.6667 140.5,28C 136.799,30.2367 133.632,33.0701 131,36.5C 130.667,36.1667 130.333,35.8333 130,35.5C 120.591,44.437 110.757,52.7703 100.5,60.5C 90.7924,69.4517 81.1257,78.285 71.5,87C 67.205,89.3077 63.205,91.9744 59.5,95C 56.1325,99.0342 52.4659,102.701 48.5,106C 47.175,105.852 46.0084,106.018 45,106.5C 44.51,105.207 44.3433,103.873 44.5,102.5C 45.633,95.1378 47.633,88.4711 50.5,82.5C 50.2254,87.2203 51.0588,87.5537 53,83.5C 53.3333,83.8333 53.6667,84.1667 54,84.5C 58.2522,80.9094 62.4189,77.0761 66.5,73C 67.5,72.6667 68.5,72.3333 69.5,72C 78.7698,64.2154 87.7698,56.2154 96.5,48C 103.32,42.4241 110.32,37.0907 117.5,32C 116.672,31.0853 115.672,30.4186 114.5,30C 117.097,29.2208 117.097,28.7208 114.5,28.5C 117.942,27.2521 121.608,26.4188 125.5,26C 132.492,25.5004 139.492,25.3337 146.5,25.5 Z"/></g>
<g><path style="opacity:0.999" fill="#4e4e4e" d="M 114.5,28.5 C 117.097,28.7208 117.097,29.2208 114.5,30C 115.672,30.4186 116.672,31.0853 117.5,32C 110.32,37.0907 103.32,42.4241 96.5,48C 87.7698,56.2154 78.7698,64.2154 69.5,72C 68.5,72.3333 67.5,72.6667 66.5,73C 62.4189,77.0761 58.2522,80.9094 54,84.5C 53.6667,84.1667 53.3333,83.8333 53,83.5C 51.0588,87.5537 50.2254,87.2203 50.5,82.5C 62.9599,54.0442 84.2933,36.0442 114.5,28.5 Z"/></g>
<g><path style="opacity:1" fill="#2a7d95" d="M 266.5,7.5 C 267.566,6.30789 268.399,6.64122 269,8.5C 285.515,58.7311 302.348,108.398 319.5,157.5C 320.975,159.717 321.309,162.05 320.5,164.5C 322.517,182.662 324.517,200.828 326.5,219C 326.316,220.376 325.649,221.209 324.5,221.5C 308.818,203.154 292.484,185.488 275.5,168.5C 275.768,166.901 275.434,165.568 274.5,164.5C 273.576,112.783 271.41,61.1162 268,9.5C 267.722,8.5842 267.222,7.91753 266.5,7.5 Z"/></g>
<g><path style="opacity:1" fill="#2e5565" d="M 227.5,69.5 C 227.5,69.8333 227.5,70.1667 227.5,70.5C 228.806,87.8155 229.806,105.149 230.5,122.5C 228.844,107.014 227.511,91.3471 226.5,75.5C 226.505,73.3035 226.838,71.3035 227.5,69.5 Z"/></g>
<g><path style="opacity:1" fill="#26526b" d="M 214.5,88.5 C 214.573,90.0269 213.906,91.0269 212.5,91.5C 212.427,89.9731 213.094,88.9731 214.5,88.5 Z"/></g>
<g><path style="opacity:0.998" fill="#48b1d5" d="M 227.5,70.5 C 238.771,94.3744 250.604,118.041 263,141.5C 265.483,147.96 268.15,154.293 271,160.5C 271.66,162.324 272.827,163.657 274.5,164.5C 275.434,165.568 275.768,166.901 275.5,168.5C 272.122,179.226 269.955,190.226 269,201.5C 257.688,225.771 249.354,251.104 244,277.5C 243.085,278.328 242.419,279.328 242,280.5C 241.817,277.635 241.317,274.969 240.5,272.5C 238.221,242.828 236.221,213.161 234.5,183.5C 235.156,182.378 235.489,181.045 235.5,179.5C 234.426,164.991 233.092,150.658 231.5,136.5C 230.514,132.03 230.181,127.363 230.5,122.5C 229.806,105.149 228.806,87.8155 227.5,70.5 Z"/></g>
<g><path style="opacity:0.996" fill="#74c6dd" d="M 266.5,7.5 C 267.222,7.91753 267.722,8.5842 268,9.5C 271.41,61.1162 273.576,112.783 274.5,164.5C 272.827,163.657 271.66,162.324 271,160.5C 268.15,154.293 265.483,147.96 263,141.5C 250.604,118.041 238.771,94.3744 227.5,70.5C 227.5,70.1667 227.5,69.8333 227.5,69.5C 239.476,48.2201 252.476,27.5535 266.5,7.5 Z"/></g>
<g><path style="opacity:1" fill="#b2ecd6" d="M 308.5,36.5 C 337.504,66.1705 366.17,96.1705 394.5,126.5C 384.392,145.058 374.059,163.391 363.5,181.5C 344.909,134.23 326.409,86.8966 308,39.5C 307.26,38.2506 307.427,37.2506 308.5,36.5 Z"/></g>
<g><path style="opacity:0.998" fill="#262626" d="M 78.5,105.5 C 78.0223,112.107 76.5223,118.773 74,125.5C 73.586,125.043 73.086,124.709 72.5,124.5C 63.7735,132.067 55.2735,139.734 47,147.5C 45.3642,143.29 44.1975,138.956 43.5,134.5C 55.2273,125.488 66.894,115.822 78.5,105.5 Z"/></g>
<g><path style="opacity:1" fill="#206a93" d="M 214.5,88.5 C 214.56,87.9569 214.893,87.6236 215.5,87.5C 217.391,90.5419 217.724,93.7085 216.5,97C 218.071,108.443 219.071,119.943 219.5,131.5C 216.956,121.848 215.79,111.848 216,101.5C 215.764,103.119 214.931,104.119 213.5,104.5C 214.068,99.6574 214.734,94.8241 215.5,90C 215.43,89.2352 215.097,88.7352 214.5,88.5 Z"/></g>
<g><path style="opacity:1" fill="#319aa2" d="M 308.5,36.5 C 307.427,37.2506 307.26,38.2506 308,39.5C 326.409,86.8966 344.909,134.23 363.5,181.5C 363.5,181.833 363.5,182.167 363.5,182.5C 358.798,196.959 353.631,211.293 348,225.5C 347,229.833 346,234.167 345,238.5C 340.609,247.948 336.776,257.614 333.5,267.5C 332.717,264.491 332.05,261.324 331.5,258C 331.892,256.989 332.559,256.489 333.5,256.5C 332.311,255.571 330.978,255.238 329.5,255.5C 329.125,245.168 328.792,234.835 328.5,224.5C 326.027,224.912 324.694,223.912 324.5,221.5C 325.649,221.209 326.316,220.376 326.5,219C 324.517,200.828 322.517,182.662 320.5,164.5C 321.309,162.05 320.975,159.717 319.5,157.5C 314.781,116.53 310.614,75.5298 307,34.5C 307.717,35.0442 308.217,35.7109 308.5,36.5 Z"/></g>
<g><path style="opacity:0.996" fill="#35788f" d="M 190.5,123.5 C 190.851,126.812 189.518,129.145 186.5,130.5C 187.874,128.142 189.207,125.808 190.5,123.5 Z"/></g>
<g><path style="opacity:1" fill="#633217" d="M 409.5,141.5 C 408.662,141.842 408.328,142.508 408.5,143.5C 408.5,145.833 408.5,148.167 408.5,150.5C 407.756,147.64 407.089,144.64 406.5,141.5C 407.534,138.875 408.534,138.875 409.5,141.5 Z"/></g>
<g><path style="opacity:0.997" fill="#336a7c" d="M 231.5,136.5 C 233.092,150.658 234.426,164.991 235.5,179.5C 235.489,181.045 235.156,182.378 234.5,183.5C 233.102,167.862 232.102,152.195 231.5,136.5 Z"/></g>
<g><path style="opacity:1" fill="#64e1bf" d="M 394.5,126.5 C 399.02,149.282 403.02,172.282 406.5,195.5C 406.726,202.208 407.392,208.875 408.5,215.5C 409.182,216.243 409.849,216.909 410.5,217.5C 410.5,217.833 410.5,218.167 410.5,218.5C 410.681,221.397 410.348,224.23 409.5,227C 409.944,228.762 410.444,228.595 411,226.5C 411.232,227.737 411.732,228.737 412.5,229.5C 412.5,229.833 412.5,230.167 412.5,230.5C 412.662,232.527 412.495,234.527 412,236.5C 395.597,218.604 379.431,200.604 363.5,182.5C 363.5,182.167 363.5,181.833 363.5,181.5C 374.059,163.391 384.392,145.058 394.5,126.5 Z"/></g>
<g><path style="opacity:0.999" fill="#51c2f5" d="M 214.5,88.5 C 215.097,88.7352 215.43,89.2352 215.5,90C 214.734,94.8241 214.068,99.6574 213.5,104.5C 210.164,138.194 206.497,171.861 202.5,205.5C 201.414,205.38 200.747,204.713 200.5,203.5C 196.324,182.791 191.824,162.124 187,141.5C 186.292,142.381 185.458,143.047 184.5,143.5C 184.652,139.076 185.319,134.743 186.5,130.5C 189.518,129.145 190.851,126.812 190.5,123.5C 197.342,112.477 204.676,101.811 212.5,91.5C 213.906,91.0269 214.573,90.0269 214.5,88.5 Z"/></g>
<g><path style="opacity:0.999" fill="#194b68" d="M 220.5,143.5 C 222.305,154.616 223.305,165.95 223.5,177.5C 223.167,177.5 222.833,177.5 222.5,177.5C 221.884,166.163 221.218,154.83 220.5,143.5 Z"/></g>
<g><path style="opacity:1" fill="#682d15" d="M 408.5,150.5 C 409.889,155.269 410.556,160.269 410.5,165.5C 409.111,160.731 408.444,155.731 408.5,150.5 Z"/></g>
<g><path style="opacity:0.997" fill="#29b2ef" d="M 202.5,205.5 C 202.5,206.833 202.5,208.167 202.5,209.5C 191.781,224.066 181.614,239.066 172,254.5C 167.457,260.552 163.124,266.885 159,273.5C 158.667,273.833 158.333,274.167 158,274.5C 157.51,273.207 157.343,271.873 157.5,270.5C 157.258,263.517 158.258,256.851 160.5,250.5C 163.054,246.31 164.054,241.643 163.5,236.5C 164.755,227.211 166.755,218.211 169.5,209.5C 174.462,200.624 176.462,190.957 175.5,180.5C 177.474,176.472 178.974,172.472 180,168.5C 180.17,170.715 180.837,172.715 182,174.5C 183.266,170.605 183.766,166.605 183.5,162.5C 184.5,162.5 185.5,162.5 186.5,162.5C 186.649,161.448 186.483,160.448 186,159.5C 184.324,160.061 182.991,161.061 182,162.5C 181.088,158.548 181.755,154.881 184,151.5C 184.497,148.854 184.664,146.187 184.5,143.5C 185.458,143.047 186.292,142.381 187,141.5C 191.824,162.124 196.324,182.791 200.5,203.5C 200.747,204.713 201.414,205.38 202.5,205.5 Z"/></g>
<g><path style="opacity:1" fill="#193249" d="M 166.5,158.5 C 166.56,157.957 166.893,157.624 167.5,157.5C 167.833,158.667 168.167,159.833 168.5,161C 168.006,166.669 167.34,172.169 166.5,177.5C 166.5,172.833 166.5,168.167 166.5,163.5C 167.72,161.716 167.72,160.05 166.5,158.5 Z"/></g>
<g><path style="opacity:1" fill="#e1620b" d="M 408.5,143.5 C 420.61,165.044 432.277,187.044 443.5,209.5C 443.628,211.655 443.128,213.655 442,215.5C 438.003,221.49 434.003,227.49 430,233.5C 427.567,237.747 425.401,242.081 423.5,246.5C 421.709,242.766 420.376,238.766 419.5,234.5C 419.5,234.167 419.5,233.833 419.5,233.5C 419.745,227.916 419.078,222.583 417.5,217.5C 416.625,204.928 414.958,192.594 412.5,180.5C 412.556,175.269 411.889,170.269 410.5,165.5C 410.556,160.269 409.889,155.269 408.5,150.5C 408.5,148.167 408.5,145.833 408.5,143.5 Z"/></g>
<g><path style="opacity:1" fill="#2fa6d9" d="M 186.5,130.5 C 185.319,134.743 184.652,139.076 184.5,143.5C 184.664,146.187 184.497,148.854 184,151.5C 181.755,154.881 181.088,158.548 182,162.5C 182.991,161.061 184.324,160.061 186,159.5C 186.483,160.448 186.649,161.448 186.5,162.5C 185.5,162.5 184.5,162.5 183.5,162.5C 183.766,166.605 183.266,170.605 182,174.5C 180.837,172.715 180.17,170.715 180,168.5C 178.974,172.472 177.474,176.472 175.5,180.5C 178.448,164.147 181.615,147.814 185,131.5C 185.383,130.944 185.883,130.611 186.5,130.5 Z"/></g>
<g><path style="opacity:1" fill="#733716" d="M 410.5,165.5 C 411.889,170.269 412.556,175.269 412.5,180.5C 411.111,175.731 410.444,170.731 410.5,165.5 Z"/></g>
<g><path style="opacity:1" fill="#f7cb39" d="M 409.5,141.5 C 429.465,158.796 449.132,176.463 468.5,194.5C 468.525,197.179 469.858,198.512 472.5,198.5C 480.826,205.493 488.826,212.826 496.5,220.5C 496.44,221.043 496.107,221.376 495.5,221.5C 479.577,218.02 463.577,214.853 447.5,212C 445.867,211.52 444.534,210.687 443.5,209.5C 432.277,187.044 420.61,165.044 408.5,143.5C 408.328,142.508 408.662,141.842 409.5,141.5 Z"/></g>
<g><path style="opacity:1" fill="#224a65" d="M 165.5,186.5 C 165.376,191.049 164.709,195.382 163.5,199.5C 162.903,194.706 163.57,190.373 165.5,186.5 Z"/></g>
<g><path style="opacity:0.999" fill="#1d6fa1" d="M 222.5,177.5 C 222.833,177.5 223.167,177.5 223.5,177.5C 224.309,179.292 224.809,181.292 225,183.5C 225.791,193.822 226.291,204.155 226.5,214.5C 225.827,207.556 224.66,200.556 223,193.5C 222.501,188.177 222.334,182.844 222.5,177.5 Z"/></g>
<g><path style="opacity:0.996" fill="#5d6d76" d="M 147.5,189.5 C 147.573,191.027 146.906,192.027 145.5,192.5C 145.427,190.973 146.094,189.973 147.5,189.5 Z"/></g>
<g><path style="opacity:0.996" fill="#2d8bb2" d="M 175.5,180.5 C 176.462,190.957 174.462,200.624 169.5,209.5C 171.008,199.622 173.008,189.956 175.5,180.5 Z"/></g>
<g><path style="opacity:1" fill="#3bc2b6" d="M 363.5,182.5 C 379.431,200.604 395.597,218.604 412,236.5C 412.495,234.527 412.662,232.527 412.5,230.5C 413.266,232.684 413.933,235.018 414.5,237.5C 414.291,238.086 413.957,238.586 413.5,239C 387.897,249.475 362.231,259.642 336.5,269.5C 334.821,269.715 333.821,269.048 333.5,267.5C 336.776,257.614 340.609,247.948 345,238.5C 346,234.167 347,229.833 348,225.5C 353.631,211.293 358.798,196.959 363.5,182.5 Z"/></g>
<g><path style="opacity:0.996" fill="#566776" d="M 143.5,195.5 C 143.573,197.027 142.906,198.027 141.5,198.5C 141.427,196.973 142.094,195.973 143.5,195.5 Z"/></g>
<g><path style="opacity:1" fill="#ac8d36" d="M 468.5,194.5 C 470.167,195.5 471.5,196.833 472.5,198.5C 469.858,198.512 468.525,197.179 468.5,194.5 Z"/></g>
<g><path style="opacity:0.997" fill="#bbd6f4" d="M 166.5,158.5 C 167.72,160.05 167.72,161.716 166.5,163.5C 157.803,187.922 149.47,212.588 141.5,237.5C 137.425,241.078 133.425,244.911 129.5,249C 118.582,256.623 108.249,264.957 98.5,274C 96.9221,275.094 95.2554,275.928 93.5,276.5C 93.5,275.5 93.5,274.5 93.5,273.5C 94.8221,273.67 95.9887,273.337 97,272.5C 97.2022,270.744 97.7022,269.078 98.5,267.5C 99.4776,267.977 100.311,268.643 101,269.5C 102.046,267.91 103.213,266.41 104.5,265C 104.167,264.667 103.833,264.333 103.5,264C 104.667,263.5 105.5,262.667 106,261.5C 106.805,263.901 107.638,263.734 108.5,261C 107.24,259.887 106.073,259.72 105,260.5C 104.398,257.779 104.565,255.113 105.5,252.5C 106.906,252.027 107.573,251.027 107.5,249.5C 108.037,246.964 109.37,244.964 111.5,243.5C 112.906,243.027 113.573,242.027 113.5,240.5C 118.34,232.148 123.673,224.148 129.5,216.5C 130.906,216.027 131.573,215.027 131.5,213.5C 134.092,207.976 137.425,202.976 141.5,198.5C 142.906,198.027 143.573,197.027 143.5,195.5C 143.427,193.973 144.094,192.973 145.5,192.5C 146.906,192.027 147.573,191.027 147.5,189.5C 154.016,179.293 160.35,168.96 166.5,158.5 Z"/></g>
<g><path style="opacity:0.998" fill="#3d92d4" d="M 166.5,163.5 C 166.5,168.167 166.5,172.833 166.5,177.5C 166.492,180.545 166.159,183.545 165.5,186.5C 163.57,190.373 162.903,194.706 163.5,199.5C 163.806,202.385 163.473,205.052 162.5,207.5C 161.235,208.514 160.569,210.014 160.5,212C 158.255,227.388 155.921,242.721 153.5,258C 153.316,259.376 152.649,260.209 151.5,260.5C 146.643,253.628 143.309,245.962 141.5,237.5C 149.47,212.588 157.803,187.922 166.5,163.5 Z"/></g>
<g><path style="opacity:1" fill="#1485c5" d="M 219.5,131.5 C 220.36,135.434 220.693,139.434 220.5,143.5C 221.218,154.83 221.884,166.163 222.5,177.5C 222.334,182.844 222.501,188.177 223,193.5C 224.66,200.556 225.827,207.556 226.5,214.5C 228.673,235.075 230.339,255.741 231.5,276.5C 221.294,254.6 211.628,232.266 202.5,209.5C 202.5,208.167 202.5,206.833 202.5,205.5C 206.497,171.861 210.164,138.194 213.5,104.5C 214.931,104.119 215.764,103.119 216,101.5C 215.79,111.848 216.956,121.848 219.5,131.5 Z"/></g>
<g><path style="opacity:1" fill="#934921" d="M 412.5,180.5 C 414.958,192.594 416.625,204.928 417.5,217.5C 415.111,205.398 413.444,193.065 412.5,180.5 Z"/></g>
<g><path style="opacity:1" fill="#56ab94" d="M 406.5,195.5 C 408.246,202.633 409.58,209.966 410.5,217.5C 409.849,216.909 409.182,216.243 408.5,215.5C 407.392,208.875 406.726,202.208 406.5,195.5 Z"/></g>
<g><path style="opacity:0.996" fill="#5c6878" d="M 131.5,213.5 C 131.573,215.027 130.906,216.027 129.5,216.5C 129.427,214.973 130.094,213.973 131.5,213.5 Z"/></g>
<g><path style="opacity:1" fill="#23a1d0" d="M 275.5,168.5 C 292.484,185.488 308.818,203.154 324.5,221.5C 324.694,223.912 326.027,224.912 328.5,224.5C 328.792,234.835 329.125,245.168 329.5,255.5C 328.5,256.167 327.5,256.833 326.5,257.5C 308.54,262.594 290.54,267.927 272.5,273.5C 265.833,274.724 259.499,276.724 253.5,279.5C 249.791,281.569 245.791,282.735 241.5,283C 240.544,279.606 240.211,276.106 240.5,272.5C 241.317,274.969 241.817,277.635 242,280.5C 242.419,279.328 243.085,278.328 244,277.5C 249.354,251.104 257.688,225.771 269,201.5C 269.955,190.226 272.122,179.226 275.5,168.5 Z"/></g>
<g><path style="opacity:1" fill="#38a6e1" d="M 202.5,209.5 C 211.628,232.266 221.294,254.6 231.5,276.5C 231.5,276.833 231.5,277.167 231.5,277.5C 209.167,277.5 186.833,277.5 164.5,277.5C 161.881,277.232 159.381,277.565 157,278.5C 155.51,275.77 155.676,273.103 157.5,270.5C 157.343,271.873 157.51,273.207 158,274.5C 158.333,274.167 158.667,273.833 159,273.5C 163.124,266.885 167.457,260.552 172,254.5C 181.614,239.066 191.781,224.066 202.5,209.5 Z"/></g>
<g><path style="opacity:1" fill="#a76129" d="M 494.5,222.5 C 487.459,225.738 480.126,228.405 472.5,230.5C 474.325,228.34 476.659,226.84 479.5,226C 484.438,224.52 489.438,223.353 494.5,222.5 Z"/></g>
<g><path style="opacity:1" fill="#47997d" d="M 410.5,218.5 C 411.687,221.946 412.354,225.613 412.5,229.5C 411.732,228.737 411.232,227.737 411,226.5C 410.444,228.595 409.944,228.762 409.5,227C 410.348,224.23 410.681,221.397 410.5,218.5 Z"/></g>
<g><path style="opacity:1" fill="#965224" d="M 417.5,217.5 C 419.078,222.583 419.745,227.916 419.5,233.5C 418.194,228.384 417.527,223.051 417.5,217.5 Z"/></g>
<g><path style="opacity:1" fill="#f2861e" d="M 443.5,209.5 C 444.534,210.687 445.867,211.52 447.5,212C 463.577,214.853 479.577,218.02 495.5,221.5C 496.107,221.376 496.44,221.043 496.5,220.5C 497.043,220.56 497.376,220.893 497.5,221.5C 496.675,222.386 495.675,222.719 494.5,222.5C 489.438,223.353 484.438,224.52 479.5,226C 476.659,226.84 474.325,228.34 472.5,230.5C 470.473,230.338 468.473,230.505 466.5,231C 464.881,231.236 463.881,232.069 463.5,233.5C 455.41,235.12 447.41,236.953 439.5,239C 440.833,239.667 440.833,240.333 439.5,241C 436.179,242.438 432.846,242.605 429.5,241.5C 428.305,243.121 427.305,244.787 426.5,246.5C 425.5,246.5 424.5,246.5 423.5,246.5C 425.401,242.081 427.567,237.747 430,233.5C 434.003,227.49 438.003,221.49 442,215.5C 443.128,213.655 443.628,211.655 443.5,209.5 Z"/></g>
<g><path style="opacity:1" fill="#a45d2a" d="M 472.5,230.5 C 469.785,232.072 466.785,233.072 463.5,233.5C 463.881,232.069 464.881,231.236 466.5,231C 468.473,230.505 470.473,230.338 472.5,230.5 Z"/></g>
<g><path style="opacity:1" fill="#cf7c32" d="M 463.5,233.5 C 451.329,238.075 438.996,242.408 426.5,246.5C 427.305,244.787 428.305,243.121 429.5,241.5C 432.846,242.605 436.179,242.438 439.5,241C 440.833,240.333 440.833,239.667 439.5,239C 447.41,236.953 455.41,235.12 463.5,233.5 Z"/></g>
<g><path style="opacity:1" fill="#3a3028" d="M 519.5,241.5 C 519.897,240.475 520.563,240.308 521.5,241C 520.906,241.464 520.239,241.631 519.5,241.5 Z"/></g>
<g><path style="opacity:1" fill="#556979" d="M 113.5,240.5 C 113.573,242.027 112.906,243.027 111.5,243.5C 111.427,241.973 112.094,240.973 113.5,240.5 Z"/></g>
<g><path style="opacity:1" fill="#a45e2a" d="M 419.5,234.5 C 420.376,238.766 421.709,242.766 423.5,246.5C 424.5,246.5 425.5,246.5 426.5,246.5C 424.829,248.008 422.996,248.341 421,247.5C 420.265,243.187 419.765,238.853 419.5,234.5 Z"/></g>
<g><path style="opacity:1" fill="#2a779a" d="M 163.5,236.5 C 164.054,241.643 163.054,246.31 160.5,250.5C 161.01,245.609 162.01,240.942 163.5,236.5 Z"/></g>
<g><path style="opacity:1" fill="#ad642e" d="M 519.5,241.5 C 510.805,245.736 501.805,249.403 492.5,252.5C 493.429,251.685 494.429,250.852 495.5,250C 492.854,249.503 490.187,249.336 487.5,249.5C 497.91,246.231 508.577,243.564 519.5,241.5 Z"/></g>
<g><path style="opacity:1" fill="#495e6d" d="M 107.5,249.5 C 107.573,251.027 106.906,252.027 105.5,252.5C 105.427,250.973 106.094,249.973 107.5,249.5 Z"/></g>
<g><path style="opacity:1" fill="#765c2f" d="M 487.5,249.5 C 485.309,250.869 482.975,251.869 480.5,252.5C 476.193,253.327 471.86,253.993 467.5,254.5C 473.905,252.232 480.572,250.565 487.5,249.5 Z"/></g>
<g><path style="opacity:0.998" fill="#74b3e6" d="M 141.5,237.5 C 143.309,245.962 146.643,253.628 151.5,260.5C 152.167,262.833 152.833,265.167 153.5,267.5C 151.214,267.595 149.214,268.262 147.5,269.5C 143.521,269.742 139.854,270.742 136.5,272.5C 134.095,273.768 131.428,274.435 128.5,274.5C 125.813,274.336 123.146,274.503 120.5,275C 119.058,275.377 118.058,276.21 117.5,277.5C 116.432,278.434 115.099,278.768 113.5,278.5C 111.453,278.489 109.453,278.156 107.5,277.5C 101.917,278.898 96.2503,279.565 90.5,279.5C 91.3065,278.272 92.3065,277.272 93.5,276.5C 95.2554,275.928 96.9221,275.094 98.5,274C 108.249,264.957 118.582,256.623 129.5,249C 133.425,244.911 137.425,241.078 141.5,237.5 Z"/></g>
<g><path style="opacity:1" fill="#b9a755" d="M 480.5,252.5 C 473.168,255.376 465.834,258.042 458.5,260.5C 455.256,261.463 452.256,262.796 449.5,264.5C 446.167,265.167 442.833,265.833 439.5,266.5C 442.473,264.408 445.807,262.908 449.5,262C 450.171,261.014 450.171,259.847 449.5,258.5C 455.249,256.566 461.249,255.233 467.5,254.5C 471.86,253.993 476.193,253.327 480.5,252.5 Z"/></g>
<g><path style="opacity:0.998" fill="#abc4de" d="M 105.5,252.5 C 104.565,255.113 104.398,257.779 105,260.5C 106.073,259.72 107.24,259.887 108.5,261C 107.638,263.734 106.805,263.901 106,261.5C 105.5,262.667 104.667,263.5 103.5,264C 103.833,264.333 104.167,264.667 104.5,265C 103.213,266.41 102.046,267.91 101,269.5C 100.311,268.643 99.4776,267.977 98.5,267.5C 97.7022,269.078 97.2022,270.744 97,272.5C 95.9887,273.337 94.8221,273.67 93.5,273.5C 93.5,274.5 93.5,275.5 93.5,276.5C 92.3065,277.272 91.3065,278.272 90.5,279.5C 88.5212,280.812 86.8545,282.479 85.5,284.5C 84.7025,284.043 84.3691,283.376 84.5,282.5C 91.5325,272.477 98.5325,262.477 105.5,252.5 Z"/></g>
<g><path style="opacity:1" fill="#e07a22" d="M 487.5,249.5 C 490.187,249.336 492.854,249.503 495.5,250C 494.429,250.852 493.429,251.685 492.5,252.5C 483.686,256.736 474.686,260.736 465.5,264.5C 463.181,265.167 460.847,265.334 458.5,265C 458.264,263.549 458.264,262.049 458.5,260.5C 465.834,258.042 473.168,255.376 480.5,252.5C 482.975,251.869 485.309,250.869 487.5,249.5 Z"/></g>
<g><path style="opacity:0.996" fill="#3b77a3" d="M 162.5,207.5 C 159.845,225.081 157.178,242.747 154.5,260.5C 155.516,263.134 155.516,265.8 154.5,268.5C 152.194,268.993 149.861,269.326 147.5,269.5C 149.214,268.262 151.214,267.595 153.5,267.5C 152.833,265.167 152.167,262.833 151.5,260.5C 152.649,260.209 153.316,259.376 153.5,258C 155.921,242.721 158.255,227.388 160.5,212C 160.569,210.014 161.235,208.514 162.5,207.5 Z"/></g>
<g><path style="opacity:1" fill="#97af6f" d="M 449.5,258.5 C 450.171,259.847 450.171,261.014 449.5,262C 445.807,262.908 442.473,264.408 439.5,266.5C 437.302,266.12 435.635,266.787 434.5,268.5C 432.139,268.674 429.806,269.007 427.5,269.5C 428.949,267.836 430.949,267.002 433.5,267C 431.725,265.561 429.725,264.561 427.5,264C 428.416,263.722 429.082,263.222 429.5,262.5C 436.082,260.784 442.749,259.45 449.5,258.5 Z"/></g>
<g><path style="opacity:1" fill="#ea9429" d="M 458.5,260.5 C 458.264,262.049 458.264,263.549 458.5,265C 460.847,265.334 463.181,265.167 465.5,264.5C 459.536,268.152 453.536,271.819 447.5,275.5C 447.64,273.876 446.973,272.71 445.5,272C 447.569,271.676 447.902,270.842 446.5,269.5C 451.73,268.075 451.73,266.909 446.5,266C 447.737,265.768 448.737,265.268 449.5,264.5C 452.256,262.796 455.256,261.463 458.5,260.5 Z"/></g>
<g><path style="opacity:0.996" fill="#2f7272" d="M 329.5,255.5 C 330.978,255.238 332.311,255.571 333.5,256.5C 332.559,256.489 331.892,256.989 331.5,258C 332.05,261.324 332.717,264.491 333.5,267.5C 333.821,269.048 334.821,269.715 336.5,269.5C 335.249,271.22 333.749,271.553 332,270.5C 330.925,266.23 330.425,261.897 330.5,257.5C 329.167,257.5 327.833,257.5 326.5,257.5C 327.5,256.833 328.5,256.167 329.5,255.5 Z"/></g>
<g><path style="opacity:1" fill="#7ab48b" d="M 429.5,262.5 C 429.082,263.222 428.416,263.722 427.5,264C 429.725,264.561 431.725,265.561 433.5,267C 430.949,267.002 428.949,267.836 427.5,269.5C 422.628,272.017 417.628,274.351 412.5,276.5C 411.167,276.833 409.833,277.167 408.5,277.5C 409.347,276.034 410.68,275.2 412.5,275C 411.284,273.26 409.618,272.26 407.5,272C 409.378,269.864 411.711,268.364 414.5,267.5C 413.311,266.571 411.978,266.238 410.5,266.5C 416.61,264.677 422.943,263.343 429.5,262.5 Z"/></g>
<g><path style="opacity:1" fill="#efab2e" d="M 449.5,264.5 C 448.737,265.268 447.737,265.768 446.5,266C 451.73,266.909 451.73,268.075 446.5,269.5C 447.902,270.842 447.569,271.676 445.5,272C 446.973,272.71 447.64,273.876 447.5,275.5C 444.206,278.156 440.873,280.822 437.5,283.5C 437.67,282.178 437.337,281.011 436.5,280C 437.308,279.692 437.975,279.192 438.5,278.5C 437.687,277.186 436.687,276.019 435.5,275C 436.328,274.085 437.328,273.419 438.5,273C 437.09,272.632 436.09,271.799 435.5,270.5C 437.421,269.676 438.754,268.343 439.5,266.5C 442.833,265.833 446.167,265.167 449.5,264.5 Z"/></g>
<g><path style="opacity:0.996" fill="#2a445b" d="M 147.5,269.5 C 144.146,271.258 140.479,272.258 136.5,272.5C 139.854,270.742 143.521,269.742 147.5,269.5 Z"/></g>
<g><path style="opacity:1" fill="#65b9a5" d="M 410.5,266.5 C 411.978,266.238 413.311,266.571 414.5,267.5C 411.711,268.364 409.378,269.864 407.5,272C 409.618,272.26 411.284,273.26 412.5,275C 410.68,275.2 409.347,276.034 408.5,277.5C 407.609,278.11 406.609,278.443 405.5,278.5C 404.391,278.557 403.391,278.89 402.5,279.5C 400.938,278.024 399.271,276.524 397.5,275C 395.866,274.506 394.199,274.34 392.5,274.5C 392.5,272.833 392.5,271.167 392.5,269.5C 398.394,268.073 404.394,267.073 410.5,266.5 Z"/></g>
<g><path style="opacity:1" fill="#f2c138" d="M 439.5,266.5 C 438.754,268.343 437.421,269.676 435.5,270.5C 436.09,271.799 437.09,272.632 438.5,273C 437.328,273.419 436.328,274.085 435.5,275C 436.687,276.019 437.687,277.186 438.5,278.5C 437.975,279.192 437.308,279.692 436.5,280C 437.337,281.011 437.67,282.178 437.5,283.5C 434.5,286.167 431.5,288.833 428.5,291.5C 427.855,288.453 428.855,286.287 431.5,285C 430.167,284.333 430.167,283.667 431.5,283C 429.498,280.047 427.498,277.047 425.5,274C 428.367,271.734 431.367,269.901 434.5,268.5C 435.635,266.787 437.302,266.12 439.5,266.5 Z"/></g>
<g><path style="opacity:1" fill="#4d7292" d="M 128.5,274.5 C 125.093,276.074 121.427,277.074 117.5,277.5C 118.058,276.21 119.058,275.377 120.5,275C 123.146,274.503 125.813,274.336 128.5,274.5 Z"/></g>
<g><path style="opacity:1" fill="#226079" d="M 272.5,273.5 C 266.501,276.276 260.167,278.276 253.5,279.5C 259.499,276.724 265.833,274.724 272.5,273.5 Z"/></g>
<g><path style="opacity:0.996" fill="#28728b" d="M 361.5,274.5 C 360.833,275.167 360.167,275.833 359.5,276.5C 354.924,276.438 350.591,277.105 346.5,278.5C 342.965,279.012 339.632,279.012 336.5,278.5C 344.767,276.985 353.101,275.652 361.5,274.5 Z"/></g>
<g><path style="opacity:1" fill="#265e7c" d="M 164.5,277.5 C 186.833,277.5 209.167,277.5 231.5,277.5C 231.03,278.693 230.03,279.36 228.5,279.5C 207.013,278.866 185.68,278.199 164.5,277.5 Z"/></g>
<g><path style="opacity:1" fill="#618eb6" d="M 113.5,278.5 C 104.374,280.788 94.8744,283.121 85,285.5C 82.236,285.33 82.0694,284.33 84.5,282.5C 84.3691,283.376 84.7025,284.043 85.5,284.5C 86.8545,282.479 88.5212,280.812 90.5,279.5C 96.2503,279.565 101.917,278.898 107.5,277.5C 109.453,278.156 111.453,278.489 113.5,278.5 Z"/></g>
<g><path style="opacity:1" fill="#207396" d="M 336.5,278.5 C 330.969,280.125 325.303,280.791 319.5,280.5C 324.509,279.373 329.675,278.373 335,277.5C 335.765,277.57 336.265,277.903 336.5,278.5 Z"/></g>
<g><path style="opacity:0.998" fill="#51babc" d="M 392.5,269.5 C 392.5,271.167 392.5,272.833 392.5,274.5C 394.199,274.34 395.866,274.506 397.5,275C 399.271,276.524 400.938,278.024 402.5,279.5C 396.616,281.945 390.95,284.611 385.5,287.5C 382.095,289.867 378.429,291.867 374.5,293.5C 376.328,291.839 378.328,290.172 380.5,288.5C 379.5,287.833 378.5,287.167 377.5,286.5C 377.709,285.914 378.043,285.414 378.5,285C 374.907,284.316 374.573,282.816 377.5,280.5C 376.167,279.5 374.833,278.5 373.5,277.5C 376.782,275.259 380.449,273.926 384.5,273.5C 385.127,272.583 385.461,271.583 385.5,270.5C 387.806,270.007 390.139,269.674 392.5,269.5 Z"/></g>
<g><path style="opacity:0.996" fill="#35b5d5" d="M 359.5,276.5 C 362.205,276.38 362.872,277.38 361.5,279.5C 364.413,280.542 367.079,281.875 369.5,283.5C 367.257,284.474 364.924,284.808 362.5,284.5C 362.5,285.833 362.5,287.167 362.5,288.5C 365.547,289.145 367.713,288.145 369,285.5C 370.147,286.458 371.147,286.125 372,284.5C 373.067,285.191 374.234,285.691 375.5,286C 373.507,287.592 371.507,289.092 369.5,290.5C 370.5,291.167 371.5,291.833 372.5,292.5C 369.833,292.833 367.167,293.167 364.5,293.5C 365.602,294.176 366.602,294.842 367.5,295.5C 367.5,295.833 367.5,296.167 367.5,296.5C 363.586,297.24 360.253,299.073 357.5,302C 355.564,302.813 353.564,303.313 351.5,303.5C 349.833,304.167 348.167,304.833 346.5,305.5C 347.896,303.291 349.896,301.791 352.5,301C 351.906,300.536 351.239,300.369 350.5,300.5C 346.664,298.542 346.997,296.708 351.5,295C 349.602,294.1 347.936,292.934 346.5,291.5C 349.428,290.212 351.928,290.879 354,293.5C 354.5,293 355,292.5 355.5,292C 354.027,291.29 353.36,290.124 353.5,288.5C 350.684,288.456 348.351,287.456 346.5,285.5C 354.549,283.429 354.883,281.929 347.5,281C 346.748,280.329 346.414,279.496 346.5,278.5C 350.591,277.105 354.924,276.438 359.5,276.5 Z"/></g>
<g><path style="opacity:1" fill="#25b4e8" d="M 336.5,278.5 C 339.632,279.012 342.965,279.012 346.5,278.5C 346.414,279.496 346.748,280.329 347.5,281C 354.883,281.929 354.549,283.429 346.5,285.5C 348.351,287.456 350.684,288.456 353.5,288.5C 353.36,290.124 354.027,291.29 355.5,292C 355,292.5 354.5,293 354,293.5C 351.928,290.879 349.428,290.212 346.5,291.5C 347.936,292.934 349.602,294.1 351.5,295C 346.997,296.708 346.664,298.542 350.5,300.5C 348.508,300.328 346.842,300.995 345.5,302.5C 344.393,301.978 343.226,301.645 342,301.5C 337.633,302.97 333.133,303.97 328.5,304.5C 326.709,303.609 324.876,302.609 323,301.5C 321.856,296.383 320.022,291.549 317.5,287C 318.624,286.751 319.624,286.251 320.5,285.5C 317.893,284.682 315.226,284.182 312.5,284C 314.167,283.667 315.833,283.333 317.5,283C 316.906,282.536 316.239,282.369 315.5,282.5C 316.833,281.833 318.167,281.167 319.5,280.5C 325.303,280.791 330.969,280.125 336.5,278.5 Z"/></g>
<g><path style="opacity:0.999" fill="#41b5c6" d="M 385.5,270.5 C 385.461,271.583 385.127,272.583 384.5,273.5C 380.449,273.926 376.782,275.259 373.5,277.5C 374.833,278.5 376.167,279.5 377.5,280.5C 374.573,282.816 374.907,284.316 378.5,285C 378.043,285.414 377.709,285.914 377.5,286.5C 378.5,287.167 379.5,287.833 380.5,288.5C 378.328,290.172 376.328,291.839 374.5,293.5C 373.833,293.5 373.5,293.833 373.5,294.5C 372.833,294.5 372.167,294.5 371.5,294.5C 370.167,294.833 368.833,295.167 367.5,295.5C 366.602,294.842 365.602,294.176 364.5,293.5C 367.167,293.167 369.833,292.833 372.5,292.5C 371.5,291.833 370.5,291.167 369.5,290.5C 371.507,289.092 373.507,287.592 375.5,286C 374.234,285.691 373.067,285.191 372,284.5C 371.147,286.125 370.147,286.458 369,285.5C 367.713,288.145 365.547,289.145 362.5,288.5C 362.5,287.167 362.5,285.833 362.5,284.5C 364.924,284.808 367.257,284.474 369.5,283.5C 367.079,281.875 364.413,280.542 361.5,279.5C 362.872,277.38 362.205,276.38 359.5,276.5C 360.167,275.833 360.833,275.167 361.5,274.5C 369.555,273.445 377.555,272.111 385.5,270.5 Z"/></g>
<g><path style="opacity:1" fill="#21ace4" d="M 315.5,282.5 C 316.239,282.369 316.906,282.536 317.5,283C 315.833,283.333 314.167,283.667 312.5,284C 315.226,284.182 317.893,284.682 320.5,285.5C 319.624,286.251 318.624,286.751 317.5,287C 320.022,291.549 321.856,296.383 323,301.5C 324.876,302.609 326.709,303.609 328.5,304.5C 326.5,305.167 324.5,305.833 322.5,306.5C 316.786,307.175 311.119,308.175 305.5,309.5C 303.044,309.247 301.044,308.247 299.5,306.5C 304.108,302.494 303.442,299.994 297.5,299C 298.308,298.692 298.975,298.192 299.5,297.5C 297.73,296.18 297.397,294.68 298.5,293C 297.5,292.667 296.5,292.333 295.5,292C 296.386,290.783 297.386,289.449 298.5,288C 297.207,287.51 295.873,287.343 294.5,287.5C 297.392,285.886 300.392,284.553 303.5,283.5C 307.434,282.64 311.434,282.307 315.5,282.5 Z"/></g>
<g><path style="opacity:1" fill="#307099" d="M 319.5,280.5 C 318.167,281.167 316.833,281.833 315.5,282.5C 311.434,282.307 307.434,282.64 303.5,283.5C 295.856,284.414 288.19,285.08 280.5,285.5C 293.293,283.275 306.293,281.609 319.5,280.5 Z"/></g>
<g><path style="opacity:1" fill="#d4d94a" d="M 412.5,276.5 C 411.426,277.885 410.093,279.051 408.5,280C 409.428,280.388 410.095,281.055 410.5,282C 409.107,283.301 408.607,284.801 409,286.5C 410.667,287.167 412.333,287.833 414,288.5C 414.878,291.257 415.878,293.924 417,296.5C 419.363,293.588 420.863,293.922 421.5,297.5C 420.057,298.335 419.057,299.668 418.5,301.5C 417.749,300.624 417.249,299.624 417,298.5C 416.257,300.441 416.424,302.274 417.5,304C 413.954,304.793 412.12,303.293 412,299.5C 405.423,296.32 401.256,290.653 399.5,282.5C 401.853,281.66 403.853,280.326 405.5,278.5C 406.609,278.443 407.609,278.11 408.5,277.5C 409.833,277.167 411.167,276.833 412.5,276.5 Z"/></g>
<g><path style="opacity:1" fill="#ead541" d="M 434.5,268.5 C 431.367,269.901 428.367,271.734 425.5,274C 427.498,277.047 429.498,280.047 431.5,283C 430.167,283.667 430.167,284.333 431.5,285C 428.855,286.287 427.855,288.453 428.5,291.5C 426.157,294.207 423.823,296.874 421.5,299.5C 421.5,298.833 421.5,298.167 421.5,297.5C 420.863,293.922 419.363,293.588 417,296.5C 415.878,293.924 414.878,291.257 414,288.5C 412.333,287.833 410.667,287.167 409,286.5C 408.607,284.801 409.107,283.301 410.5,282C 410.095,281.055 409.428,280.388 408.5,280C 410.093,279.051 411.426,277.885 412.5,276.5C 417.628,274.351 422.628,272.017 427.5,269.5C 429.806,269.007 432.139,268.674 434.5,268.5 Z"/></g>
<g><path style="opacity:1" fill="#21a3dc" d="M 294.5,287.5 C 295.873,287.343 297.207,287.51 298.5,288C 297.386,289.449 296.386,290.783 295.5,292C 296.5,292.333 297.5,292.667 298.5,293C 297.397,294.68 297.73,296.18 299.5,297.5C 298.975,298.192 298.308,298.692 297.5,299C 303.442,299.994 304.108,302.494 299.5,306.5C 301.044,308.247 303.044,309.247 305.5,309.5C 311.119,308.175 316.786,307.175 322.5,306.5C 319.592,307.816 316.592,308.816 313.5,309.5C 306.484,310.392 299.484,311.392 292.5,312.5C 289.274,311.728 285.608,311.728 281.5,312.5C 281.649,311.448 281.483,310.448 281,309.5C 279.612,310.554 278.112,310.72 276.5,310C 279.051,308.484 278.718,307.651 275.5,307.5C 275.833,305.5 276.167,303.5 276.5,301.5C 278.429,301.769 280.095,301.269 281.5,300C 278.813,299.272 276.48,298.105 274.5,296.5C 274.62,295.414 275.287,294.747 276.5,294.5C 282.806,292.67 288.806,290.336 294.5,287.5 Z"/></g>
<g><path style="opacity:1" fill="#bed751" d="M 399.5,282.5 C 401.256,290.653 405.423,296.32 412,299.5C 412.12,303.293 413.954,304.793 417.5,304C 416.424,302.274 416.257,300.441 417,298.5C 417.249,299.624 417.749,300.624 418.5,301.5C 419.057,299.668 420.057,298.335 421.5,297.5C 421.5,298.167 421.5,298.833 421.5,299.5C 419.735,302.709 417.735,305.709 415.5,308.5C 412.663,306.828 411.996,307.494 413.5,310.5C 410.867,314.457 408.7,314.123 407,309.5C 406.667,309.833 406.333,310.167 406,310.5C 404.887,309.24 404.72,308.073 405.5,307C 404.587,304.667 403.087,302.834 401,301.5C 400.667,300.167 400.333,298.833 400,297.5C 396.389,293.815 392.223,290.982 387.5,289C 389.303,288.363 390.636,287.197 391.5,285.5C 394.344,284.828 397.01,283.828 399.5,282.5 Z"/></g>
<g><path style="opacity:1" fill="#0b213d" d="M 155.5,298.5 C 149.848,299.032 144.181,299.365 138.5,299.5C 142.646,298.552 146.98,297.885 151.5,297.5C 153.045,297.511 154.378,297.844 155.5,298.5 Z"/></g>
<g><path style="opacity:1" fill="#57afe8" d="M 303.5,283.5 C 300.392,284.553 297.392,285.886 294.5,287.5C 288.806,290.336 282.806,292.67 276.5,294.5C 275.287,294.747 274.62,295.414 274.5,296.5C 259.154,301.835 243.82,307.169 228.5,312.5C 220.668,314.373 213.001,316.707 205.5,319.5C 204.793,317.866 203.627,316.532 202,315.5C 201.201,310.913 201.368,306.413 202.5,302C 198.833,301.667 195.167,301.333 191.5,301C 196.831,297.399 202.664,296.565 209,298.5C 210.982,298.01 212.649,297.01 214,295.5C 216.737,296.61 219.571,296.777 222.5,296C 223.545,294.474 225.045,293.641 227,293.5C 232.217,292.952 237.384,292.119 242.5,291C 247.833,290.333 253.167,290.333 258.5,291C 255.711,291.241 253.044,291.908 250.5,293C 256.672,293.893 262.672,293.227 268.5,291C 269.833,290 269.833,289 268.5,288C 270.058,287.79 271.391,287.29 272.5,286.5C 274.948,285.527 277.615,285.194 280.5,285.5C 288.19,285.08 295.856,284.414 303.5,283.5 Z"/></g>
<g><path style="opacity:1" fill="#204366" d="M 123.5,301.5 C 116.352,302.492 109.019,302.825 101.5,302.5C 108.775,300.949 116.108,300.616 123.5,301.5 Z"/></g>
<g><path style="opacity:1" fill="#57a7e1" d="M 272.5,286.5 C 271.391,287.29 270.058,287.79 268.5,288C 269.833,289 269.833,290 268.5,291C 262.672,293.227 256.672,293.893 250.5,293C 253.044,291.908 255.711,291.241 258.5,291C 253.167,290.333 247.833,290.333 242.5,291C 237.384,292.119 232.217,292.952 227,293.5C 225.045,293.641 223.545,294.474 222.5,296C 219.571,296.777 216.737,296.61 214,295.5C 212.649,297.01 210.982,298.01 209,298.5C 202.664,296.565 196.831,297.399 191.5,301C 195.167,301.333 198.833,301.667 202.5,302C 201.368,306.413 201.201,310.913 202,315.5C 203.627,316.532 204.793,317.866 205.5,319.5C 194.915,322.813 184.249,325.813 173.5,328.5C 169.406,329.295 166.239,327.962 164,324.5C 163.549,326.929 162.715,327.096 161.5,325C 162.207,322.457 163.54,320.291 165.5,318.5C 166.732,317.855 168.065,317.689 169.5,318C 168.663,316.989 168.33,315.822 168.5,314.5C 167.127,314.343 165.793,314.51 164.5,315C 164.868,316.473 164.368,317.973 163,319.5C 162,317.167 161,314.833 160,312.5C 158.736,312.64 157.569,312.64 156.5,312.5C 157.951,311.094 159.284,309.594 160.5,308C 157.972,307.331 157.972,306.498 160.5,305.5C 161.251,306.376 161.751,307.376 162,308.5C 163.666,307.66 163.833,308.16 162.5,310C 163.325,311.688 164.325,311.855 165.5,310.5C 166.281,311.737 167.281,312.737 168.5,313.5C 169.636,309.591 170.47,305.258 171,300.5C 175.578,298.205 180.411,297.372 185.5,298C 184.5,298.333 183.5,298.667 182.5,299C 184.833,299.667 187.167,299.667 189.5,299C 186.456,298.641 186.122,297.974 188.5,297C 187.584,296.722 186.918,296.222 186.5,295.5C 215.145,292.369 243.812,289.369 272.5,286.5 Z"/></g>
<g><path style="opacity:1" fill="#243c5c" d="M 86.5,303.5 C 84.7078,304.309 82.7078,304.809 80.5,305C 82.7078,305.191 84.7078,305.691 86.5,306.5C 70.6425,305.359 70.6425,304.359 86.5,303.5 Z"/></g>
<g><path style="opacity:1" fill="#2195d2" d="M 274.5,296.5 C 276.48,298.105 278.813,299.272 281.5,300C 280.095,301.269 278.429,301.769 276.5,301.5C 276.167,303.5 275.833,305.5 275.5,307.5C 278.718,307.651 279.051,308.484 276.5,310C 278.112,310.72 279.612,310.554 281,309.5C 281.483,310.448 281.649,311.448 281.5,312.5C 285.608,311.728 289.274,311.728 292.5,312.5C 289.646,313.205 286.979,314.205 284.5,315.5C 275.669,316.805 267.003,318.471 258.5,320.5C 256.833,320.5 255.167,320.5 253.5,320.5C 249.652,320.76 245.985,320.094 242.5,318.5C 243.711,317.28 243.711,316.113 242.5,315C 239.464,314.362 236.464,314.528 233.5,315.5C 232.01,314.16 230.344,313.16 228.5,312.5C 243.82,307.169 259.154,301.835 274.5,296.5 Z"/></g>
<g><path style="opacity:1" fill="#0d9de5" d="M 350.5,300.5 C 351.239,300.369 351.906,300.536 352.5,301C 349.896,301.791 347.896,303.291 346.5,305.5C 337.228,310.779 328.228,316.446 319.5,322.5C 316.833,324.167 314.167,325.833 311.5,327.5C 310.986,325.488 310.82,323.488 311,321.5C 312.153,323.497 313.653,323.83 315.5,322.5C 314.147,321.476 313.48,320.143 313.5,318.5C 314.552,318.649 315.552,318.483 316.5,318C 315.167,317 313.833,316 312.5,315C 313.167,313.333 313.833,311.667 314.5,310C 314.272,309.601 313.938,309.435 313.5,309.5C 316.592,308.816 319.592,307.816 322.5,306.5C 324.5,305.833 326.5,305.167 328.5,304.5C 333.133,303.97 337.633,302.97 342,301.5C 343.226,301.645 344.393,301.978 345.5,302.5C 346.842,300.995 348.508,300.328 350.5,300.5 Z"/></g>
<g><path style="opacity:0.997" fill="#a1d25e" d="M 405.5,278.5 C 403.853,280.326 401.853,281.66 399.5,282.5C 397.01,283.828 394.344,284.828 391.5,285.5C 390.636,287.197 389.303,288.363 387.5,289C 392.223,290.982 396.389,293.815 400,297.5C 400.333,298.833 400.667,300.167 401,301.5C 403.087,302.834 404.587,304.667 405.5,307C 404.72,308.073 404.887,309.24 406,310.5C 406.333,310.167 406.667,309.833 407,309.5C 408.7,314.123 410.867,314.457 413.5,310.5C 411.996,307.494 412.663,306.828 415.5,308.5C 413.863,311.817 412.196,315.15 410.5,318.5C 408.281,319.828 406.948,321.828 406.5,324.5C 403.645,322.719 402.312,320.052 402.5,316.5C 401.5,316.5 400.5,316.5 399.5,316.5C 399.657,315.127 399.49,313.793 399,312.5C 393.947,305.3 388.78,298.3 383.5,291.5C 384.63,290.378 385.297,289.044 385.5,287.5C 390.95,284.611 396.616,281.945 402.5,279.5C 403.391,278.89 404.391,278.557 405.5,278.5 Z"/></g>
<g><path style="opacity:1" fill="#228aca" d="M 228.5,312.5 C 230.344,313.16 232.01,314.16 233.5,315.5C 236.464,314.528 239.464,314.362 242.5,315C 243.711,316.113 243.711,317.28 242.5,318.5C 245.985,320.094 249.652,320.76 253.5,320.5C 241.578,324.542 229.244,327.208 216.5,328.5C 213.482,328.704 210.482,329.037 207.5,329.5C 204.15,329.335 200.817,329.502 197.5,330C 191.901,332.625 186.401,333.125 181,331.5C 179.847,333.497 178.347,333.83 176.5,332.5C 176.709,331.914 177.043,331.414 177.5,331C 175.942,330.79 174.609,330.29 173.5,329.5C 173.5,329.167 173.5,328.833 173.5,328.5C 184.249,325.813 194.915,322.813 205.5,319.5C 213.001,316.707 220.668,314.373 228.5,312.5 Z"/></g>
<g><path style="opacity:0.998" fill="#76d17f" d="M 371.5,294.5 C 372.167,294.5 372.833,294.5 373.5,294.5C 373.439,299.791 375.773,301.458 380.5,299.5C 381.509,302.049 382.342,304.715 383,307.5C 388.284,314.328 392.951,321.995 397,330.5C 397.495,332.473 397.662,334.473 397.5,336.5C 398.833,336.5 400.167,336.5 401.5,336.5C 400.081,337.451 398.415,337.784 396.5,337.5C 396.662,335.473 396.495,333.473 396,331.5C 394.644,332.38 393.144,332.714 391.5,332.5C 390.292,329.391 388.792,326.391 387,323.5C 386.667,323.833 386.333,324.167 386,324.5C 385.215,322.714 384.049,321.214 382.5,320C 382.957,319.586 383.291,319.086 383.5,318.5C 382.352,316.851 381.019,315.351 379.5,314C 381.161,310.85 380.161,309.35 376.5,309.5C 376.823,304.967 374.823,302.134 370.5,301C 371.167,300.333 371.833,299.667 372.5,299C 371.062,298.781 369.729,298.281 368.5,297.5C 369.993,296.859 370.993,295.859 371.5,294.5 Z"/></g>
<g><path style="opacity:1" fill="#0e8dd8" d="M 313.5,309.5 C 313.938,309.435 314.272,309.601 314.5,310C 313.833,311.667 313.167,313.333 312.5,315C 313.833,316 315.167,317 316.5,318C 315.552,318.483 314.552,318.649 313.5,318.5C 313.48,320.143 314.147,321.476 315.5,322.5C 313.653,323.83 312.153,323.497 311,321.5C 310.82,323.488 310.986,325.488 311.5,327.5C 310.306,328.272 309.306,329.272 308.5,330.5C 303.238,333.756 298.238,337.422 293.5,341.5C 293.338,339.473 293.505,337.473 294,335.5C 295.645,333.197 297.145,331.53 298.5,330.5C 297.326,326.158 296.16,321.824 295,317.5C 294.481,316.484 293.647,315.818 292.5,315.5C 290.734,316.091 289.067,316.924 287.5,318C 288.591,320.064 288.758,322.231 288,324.5C 287.08,321.899 286.413,319.232 286,316.5C 285.617,315.944 285.117,315.611 284.5,315.5C 286.979,314.205 289.646,313.205 292.5,312.5C 299.484,311.392 306.484,310.392 313.5,309.5 Z"/></g>
<g><path style="opacity:1" fill="#37cbdf" d="M 346.5,305.5 C 341.809,310.151 341.975,314.818 347,319.5C 348.836,323.838 350.67,328.172 352.5,332.5C 354.167,333.333 355.833,334.167 357.5,335C 357.5,337 357.5,339 357.5,341C 358.563,342.188 359.897,342.688 361.5,342.5C 354.67,343.426 347.67,344.093 340.5,344.5C 337.311,343.834 333.977,343.167 330.5,342.5C 330.709,341.914 331.043,341.414 331.5,341C 329.19,340.503 326.857,340.337 324.5,340.5C 324.5,339.5 324.5,338.5 324.5,337.5C 326.199,337.66 327.866,337.494 329.5,337C 328.692,336.692 328.025,336.192 327.5,335.5C 328.912,334.194 330.579,333.36 332.5,333C 331.167,332.333 330.167,331.333 329.5,330C 326.175,330.225 323.842,328.892 322.5,326C 321.552,325.517 320.552,325.351 319.5,325.5C 319.5,324.5 319.5,323.5 319.5,322.5C 328.228,316.446 337.228,310.779 346.5,305.5 Z"/></g>
<g><path style="opacity:0.996" fill="#569ed8" d="M 186.5,295.5 C 186.918,296.222 187.584,296.722 188.5,297C 186.122,297.974 186.456,298.641 189.5,299C 187.167,299.667 184.833,299.667 182.5,299C 183.5,298.667 184.5,298.333 185.5,298C 180.411,297.372 175.578,298.205 171,300.5C 170.47,305.258 169.636,309.591 168.5,313.5C 167.281,312.737 166.281,311.737 165.5,310.5C 164.325,311.855 163.325,311.688 162.5,310C 163.833,308.16 163.666,307.66 162,308.5C 161.751,307.376 161.251,306.376 160.5,305.5C 157.972,306.498 157.972,307.331 160.5,308C 159.284,309.594 157.951,311.094 156.5,312.5C 157.569,312.64 158.736,312.64 160,312.5C 161,314.833 162,317.167 163,319.5C 164.368,317.973 164.868,316.473 164.5,315C 165.793,314.51 167.127,314.343 168.5,314.5C 168.33,315.822 168.663,316.989 169.5,318C 168.065,317.689 166.732,317.855 165.5,318.5C 163.54,320.291 162.207,322.457 161.5,325C 162.715,327.096 163.549,326.929 164,324.5C 166.239,327.962 169.406,329.295 173.5,328.5C 173.5,328.833 173.5,329.167 173.5,329.5C 166.308,330.548 159.308,332.381 152.5,335C 144.388,335.631 136.388,336.797 128.5,338.5C 127.921,335.669 126.588,333.336 124.5,331.5C 120.328,323.829 114.328,317.995 106.5,314C 100.065,310.801 93.3983,308.301 86.5,306.5C 84.7078,305.691 82.7078,305.191 80.5,305C 82.7078,304.809 84.7078,304.309 86.5,303.5C 91.4053,302.555 96.4053,302.221 101.5,302.5C 109.019,302.825 116.352,302.492 123.5,301.5C 128.306,300.407 133.306,299.741 138.5,299.5C 144.181,299.365 149.848,299.032 155.5,298.5C 165.793,297.171 176.126,296.171 186.5,295.5 Z"/></g>
<g><path style="opacity:1" fill="#0c7ccb" d="M 284.5,315.5 C 285.117,315.611 285.617,315.944 286,316.5C 286.413,319.232 287.08,321.899 288,324.5C 288.758,322.231 288.591,320.064 287.5,318C 289.067,316.924 290.734,316.091 292.5,315.5C 293.647,315.818 294.481,316.484 295,317.5C 296.16,321.824 297.326,326.158 298.5,330.5C 297.145,331.53 295.645,333.197 294,335.5C 293.505,337.473 293.338,339.473 293.5,341.5C 291.142,343.529 288.808,345.529 286.5,347.5C 280.833,347.5 275.167,347.5 269.5,347.5C 265.818,347.665 262.152,347.499 258.5,347C 263.348,346.941 268.015,346.274 272.5,345C 270.724,341.131 268.724,337.298 266.5,333.5C 267.192,331.665 266.858,329.832 265.5,328C 266.784,327.316 267.951,327.483 269,328.5C 269.72,326.888 269.554,325.388 268.5,324C 269.623,322.956 270.956,322.29 272.5,322C 267.934,320.691 263.267,320.191 258.5,320.5C 267.003,318.471 275.669,316.805 284.5,315.5 Z"/></g>
<g><path style="opacity:0.996" fill="#7da058" d="M 410.5,318.5 C 409.404,323.132 407.737,327.466 405.5,331.5C 405.448,329.097 405.781,326.764 406.5,324.5C 406.948,321.828 408.281,319.828 410.5,318.5 Z"/></g>
<g><path style="opacity:0.998" fill="#0d6fbd" d="M 253.5,320.5 C 255.167,320.5 256.833,320.5 258.5,320.5C 263.267,320.191 267.934,320.691 272.5,322C 270.956,322.29 269.623,322.956 268.5,324C 269.554,325.388 269.72,326.888 269,328.5C 267.951,327.483 266.784,327.316 265.5,328C 266.858,329.832 267.192,331.665 266.5,333.5C 268.724,337.298 270.724,341.131 272.5,345C 268.015,346.274 263.348,346.941 258.5,347C 262.152,347.499 265.818,347.665 269.5,347.5C 266.038,348.482 262.371,348.815 258.5,348.5C 241.658,348.83 224.992,348.497 208.5,347.5C 208.833,347.5 209.167,347.5 209.5,347.5C 220.172,347.667 230.839,347.5 241.5,347C 239.947,345.903 238.614,344.57 237.5,343C 237.957,342.586 238.291,342.086 238.5,341.5C 237.011,341.467 235.678,340.967 234.5,340C 235.435,337.619 235.768,335.119 235.5,332.5C 237.942,332.646 238.609,331.813 237.5,330C 235.109,329.713 232.776,329.213 230.5,328.5C 227.362,328.356 224.195,329.023 221,330.5C 219.378,329.901 217.878,329.234 216.5,328.5C 229.244,327.208 241.578,324.542 253.5,320.5 Z"/></g>
<g><path style="opacity:0.998" fill="#6ad191" d="M 371.5,294.5 C 370.993,295.859 369.993,296.859 368.5,297.5C 369.729,298.281 371.062,298.781 372.5,299C 371.833,299.667 371.167,300.333 370.5,301C 374.823,302.134 376.823,304.967 376.5,309.5C 380.161,309.35 381.161,310.85 379.5,314C 381.019,315.351 382.352,316.851 383.5,318.5C 383.291,319.086 382.957,319.586 382.5,320C 384.049,321.214 385.215,322.714 386,324.5C 386.333,324.167 386.667,323.833 387,323.5C 388.792,326.391 390.292,329.391 391.5,332.5C 393.144,332.714 394.644,332.38 396,331.5C 396.495,333.473 396.662,335.473 396.5,337.5C 398.415,337.784 400.081,337.451 401.5,336.5C 402.022,334.781 403.022,333.448 404.5,332.5C 403.833,334.833 403.167,337.167 402.5,339.5C 399.167,339.5 395.833,339.5 392.5,339.5C 390.833,339.5 389.167,339.5 387.5,339.5C 387.66,337.801 387.494,336.134 387,334.5C 384.301,329.813 381.634,325.147 379,320.5C 375.845,318.788 374.178,316.121 374,312.5C 368.62,309.407 366.12,304.741 366.5,298.5C 366.833,297.833 367.167,297.167 367.5,296.5C 367.5,296.167 367.5,295.833 367.5,295.5C 368.833,295.167 370.167,294.833 371.5,294.5 Z"/></g>
<g><path style="opacity:0.997" fill="#85d172" d="M 385.5,287.5 C 385.297,289.044 384.63,290.378 383.5,291.5C 388.78,298.3 393.947,305.3 399,312.5C 399.49,313.793 399.657,315.127 399.5,316.5C 400.5,316.5 401.5,316.5 402.5,316.5C 402.312,320.052 403.645,322.719 406.5,324.5C 405.781,326.764 405.448,329.097 405.5,331.5C 404.833,331.5 404.5,331.833 404.5,332.5C 403.022,333.448 402.022,334.781 401.5,336.5C 400.167,336.5 398.833,336.5 397.5,336.5C 397.662,334.473 397.495,332.473 397,330.5C 392.951,321.995 388.284,314.328 383,307.5C 382.342,304.715 381.509,302.049 380.5,299.5C 375.773,301.458 373.439,299.791 373.5,294.5C 373.5,293.833 373.833,293.5 374.5,293.5C 378.429,291.867 382.095,289.867 385.5,287.5 Z"/></g>
<g><path style="opacity:0.998" fill="#5bd0a3" d="M 366.5,298.5 C 366.12,304.741 368.62,309.407 374,312.5C 374.178,316.121 375.845,318.788 379,320.5C 381.634,325.147 384.301,329.813 387,334.5C 387.494,336.134 387.66,337.801 387.5,339.5C 389.167,339.5 390.833,339.5 392.5,339.5C 390.393,340.468 388.059,340.802 385.5,340.5C 383.791,338.892 381.124,337.892 377.5,337.5C 375.74,332.738 374.074,328.238 372.5,324C 371.183,322.386 369.517,321.219 367.5,320.5C 366.107,316.714 364.441,313.048 362.5,309.5C 361.675,308.614 360.675,308.281 359.5,308.5C 359.36,306.876 360.027,305.71 361.5,305C 359.842,304.275 359.342,303.108 360,301.5C 361.87,299.781 364.037,298.781 366.5,298.5 Z"/></g>
<g><path style="opacity:0.999" fill="#2178bd" d="M 173.5,329.5 C 174.609,330.29 175.942,330.79 177.5,331C 177.043,331.414 176.709,331.914 176.5,332.5C 178.347,333.83 179.847,333.497 181,331.5C 186.401,333.125 191.901,332.625 197.5,330C 200.817,329.502 204.15,329.335 207.5,329.5C 206.791,330.404 205.791,330.737 204.5,330.5C 180.484,334.874 156.15,337.874 131.5,339.5C 130.209,339.737 129.209,339.404 128.5,338.5C 136.388,336.797 144.388,335.631 152.5,335C 159.308,332.381 166.308,330.548 173.5,329.5 Z"/></g>
<g><path style="opacity:0.999" fill="#222222" d="M 124.5,331.5 C 126.588,333.336 127.921,335.669 128.5,338.5C 129.209,339.404 130.209,339.737 131.5,339.5C 136.012,341.449 140.678,342.783 145.5,343.5C 153.257,345.658 161.257,347.158 169.5,348C 180.167,348.333 190.833,348.667 201.5,349C 198.833,350 198.833,351 201.5,352C 201.167,352.333 200.833,352.667 200.5,353C 208.167,353.667 215.833,353.667 223.5,353C 218.467,352.829 213.467,352.329 208.5,351.5C 225.153,350.501 241.82,350.167 258.5,350.5C 271.817,350.669 271.817,351.169 258.5,352C 247.167,352.333 235.833,352.667 224.5,353C 229.75,353.193 234.917,353.693 240,354.5C 250.423,353.348 260.923,353.181 271.5,354C 258.778,354.808 247.445,355.974 237.5,357.5C 235.444,358.216 233.277,358.883 231,359.5C 230.586,359.043 230.086,358.709 229.5,358.5C 173.851,361.128 118.185,361.128 62.5,358.5C 41.545,358.562 20.545,357.229 -0.5,354.5C -0.5,353.833 -0.5,353.167 -0.5,352.5C 33.5304,351.153 67.5304,349.319 101.5,347C 102.5,346.667 103.5,346.333 104.5,346C 105.833,345.333 105.833,344.667 104.5,344C 87.0377,342.322 69.7044,339.988 52.5,337C 57.708,335.358 63.0414,334.358 68.5,334C 87.2915,332.38 105.958,331.547 124.5,331.5 Z"/></g>
<g><path style="opacity:1" fill="#60d8e9" d="M 319.5,322.5 C 319.5,323.5 319.5,324.5 319.5,325.5C 320.552,325.351 321.552,325.517 322.5,326C 323.842,328.892 326.175,330.225 329.5,330C 330.167,331.333 331.167,332.333 332.5,333C 330.579,333.36 328.912,334.194 327.5,335.5C 328.025,336.192 328.692,336.692 329.5,337C 327.866,337.494 326.199,337.66 324.5,337.5C 324.5,338.5 324.5,339.5 324.5,340.5C 326.857,340.337 329.19,340.503 331.5,341C 331.043,341.414 330.709,341.914 330.5,342.5C 333.977,343.167 337.311,343.834 340.5,344.5C 334.848,345.032 329.181,345.365 323.5,345.5C 318.684,344.674 313.684,344.174 308.5,344C 311.226,343.818 313.893,343.318 316.5,342.5C 316.152,339.59 314.652,337.59 312,336.5C 311.51,335.207 311.343,333.873 311.5,332.5C 309.821,332.715 308.821,332.048 308.5,330.5C 309.306,329.272 310.306,328.272 311.5,327.5C 314.167,325.833 316.833,324.167 319.5,322.5 Z"/></g>
<g><path style="opacity:1" fill="#3accc8" d="M 351.5,303.5 C 349.763,305.55 347.763,307.383 345.5,309C 348.014,309.569 350.348,309.069 352.5,307.5C 353.167,307.833 353.833,308.167 354.5,308.5C 349.043,312.083 349.709,313.75 356.5,313.5C 357.074,317.325 358.241,320.991 360,324.5C 360.741,325.641 361.575,325.641 362.5,324.5C 364.831,326.617 365.997,329.284 366,332.5C 367.976,333.428 369.809,334.595 371.5,336C 370.62,337.356 370.286,338.856 370.5,340.5C 374.519,340.646 378.519,340.979 382.5,341.5C 375.687,342.491 368.687,342.825 361.5,342.5C 359.897,342.688 358.563,342.188 357.5,341C 357.5,339 357.5,337 357.5,335C 355.833,334.167 354.167,333.333 352.5,332.5C 350.67,328.172 348.836,323.838 347,319.5C 341.975,314.818 341.809,310.151 346.5,305.5C 348.167,304.833 349.833,304.167 351.5,303.5 Z"/></g>
<g><path style="opacity:0.999" fill="#222223" d="M 405.5,331.5 C 405.332,334.684 406.666,335.184 409.5,333C 418,332.833 426.5,332.667 435,332.5C 447.559,332.324 460.059,332.991 472.5,334.5C 473.932,334.733 474.432,335.4 474,336.5C 473.586,336.043 473.086,335.709 472.5,335.5C 456.166,338.62 439.832,341.786 423.5,345C 428.835,346.298 434.335,347.131 440,347.5C 446.868,346.936 453.701,346.27 460.5,345.5C 462.273,346.087 464.106,346.42 466,346.5C 489.2,344.274 512.367,341.94 535.5,339.5C 536.167,339.667 536.833,339.833 537.5,340C 503.663,347.071 470.163,351.905 437,354.5C 411.479,359.086 385.812,361.419 360,361.5C 321.219,365.42 282.385,368.92 243.5,372C 233.833,372.667 224.167,372.667 214.5,372C 217.417,370.472 220.417,369.139 223.5,368C 236.812,364.306 250.146,360.806 263.5,357.5C 255.098,357.934 246.431,357.934 237.5,357.5C 247.445,355.974 258.778,354.808 271.5,354C 260.923,353.181 250.423,353.348 240,354.5C 234.917,353.693 229.75,353.193 224.5,353C 235.833,352.667 247.167,352.333 258.5,352C 271.817,351.169 271.817,350.669 258.5,350.5C 258.5,349.833 258.5,349.167 258.5,348.5C 262.371,348.815 266.038,348.482 269.5,347.5C 275.167,347.5 280.833,347.5 286.5,347.5C 290.833,347.5 295.167,347.5 299.5,347.5C 315.504,347.185 331.504,346.685 347.5,346C 362.66,344.572 377.66,343.072 392.5,341.5C 395.941,340.903 399.275,340.237 402.5,339.5C 403.167,337.167 403.833,334.833 404.5,332.5C 404.5,331.833 404.833,331.5 405.5,331.5 Z"/></g>
<g><path style="opacity:1" fill="#4bceb3" d="M 367.5,296.5 C 367.167,297.167 366.833,297.833 366.5,298.5C 364.037,298.781 361.87,299.781 360,301.5C 359.342,303.108 359.842,304.275 361.5,305C 360.027,305.71 359.36,306.876 359.5,308.5C 360.675,308.281 361.675,308.614 362.5,309.5C 364.441,313.048 366.107,316.714 367.5,320.5C 369.517,321.219 371.183,322.386 372.5,324C 374.074,328.238 375.74,332.738 377.5,337.5C 381.124,337.892 383.791,338.892 385.5,340.5C 385.5,340.833 385.5,341.167 385.5,341.5C 384.5,341.5 383.5,341.5 382.5,341.5C 378.519,340.979 374.519,340.646 370.5,340.5C 370.286,338.856 370.62,337.356 371.5,336C 369.809,334.595 367.976,333.428 366,332.5C 365.997,329.284 364.831,326.617 362.5,324.5C 361.575,325.641 360.741,325.641 360,324.5C 358.241,320.991 357.074,317.325 356.5,313.5C 349.709,313.75 349.043,312.083 354.5,308.5C 353.833,308.167 353.167,307.833 352.5,307.5C 350.348,309.069 348.014,309.569 345.5,309C 347.763,307.383 349.763,305.55 351.5,303.5C 353.564,303.313 355.564,302.813 357.5,302C 360.253,299.073 363.586,297.24 367.5,296.5 Z"/></g>
<g><path style="opacity:0.999" fill="#0b66ba" d="M 216.5,328.5 C 217.878,329.234 219.378,329.901 221,330.5C 224.195,329.023 227.362,328.356 230.5,328.5C 232.776,329.213 235.109,329.713 237.5,330C 238.609,331.813 237.942,332.646 235.5,332.5C 235.768,335.119 235.435,337.619 234.5,340C 235.678,340.967 237.011,341.467 238.5,341.5C 238.291,342.086 237.957,342.586 237.5,343C 238.614,344.57 239.947,345.903 241.5,347C 230.839,347.5 220.172,347.667 209.5,347.5C 213.312,346.676 217.312,346.176 221.5,346C 220.299,345.097 219.465,343.931 219,342.5C 218.517,343.448 218.351,344.448 218.5,345.5C 216.669,344.948 215.003,344.948 213.5,345.5C 212.749,344.624 212.249,343.624 212,342.5C 211.692,343.308 211.192,343.975 210.5,344.5C 209.686,342.234 209.186,339.9 209,337.5C 208.333,340.167 207.667,340.167 207,337.5C 206.667,337.833 206.333,338.167 206,338.5C 205.365,337.034 204.531,335.7 203.5,334.5C 204.246,333.264 204.579,331.93 204.5,330.5C 205.791,330.737 206.791,330.404 207.5,329.5C 210.482,329.037 213.482,328.704 216.5,328.5 Z"/></g>
<g><path style="opacity:1" fill="#84e0ed" d="M 308.5,330.5 C 308.821,332.048 309.821,332.715 311.5,332.5C 311.343,333.873 311.51,335.207 312,336.5C 314.652,337.59 316.152,339.59 316.5,342.5C 313.893,343.318 311.226,343.818 308.5,344C 313.684,344.174 318.684,344.674 323.5,345.5C 315.346,346.036 307.346,346.703 299.5,347.5C 295.167,347.5 290.833,347.5 286.5,347.5C 288.808,345.529 291.142,343.529 293.5,341.5C 298.238,337.422 303.238,333.756 308.5,330.5 Z"/></g>
<g><path style="opacity:0.996" fill="#3d7355" d="M 392.5,339.5 C 395.833,339.5 399.167,339.5 402.5,339.5C 399.275,340.237 395.941,340.903 392.5,341.5C 390.167,341.5 387.833,341.5 385.5,341.5C 385.5,341.167 385.5,340.833 385.5,340.5C 388.059,340.802 390.393,340.468 392.5,339.5 Z"/></g>
<g><path style="opacity:0.998" fill="#0d54a9" d="M 204.5,330.5 C 204.579,331.93 204.246,333.264 203.5,334.5C 204.531,335.7 205.365,337.034 206,338.5C 206.333,338.167 206.667,337.833 207,337.5C 207.667,340.167 208.333,340.167 209,337.5C 209.186,339.9 209.686,342.234 210.5,344.5C 211.192,343.975 211.692,343.308 212,342.5C 212.249,343.624 212.749,344.624 213.5,345.5C 215.003,344.948 216.669,344.948 218.5,345.5C 218.351,344.448 218.517,343.448 219,342.5C 219.465,343.931 220.299,345.097 221.5,346C 217.312,346.176 213.312,346.676 209.5,347.5C 209.167,347.5 208.833,347.5 208.5,347.5C 187.404,347.595 166.404,346.262 145.5,343.5C 140.678,342.783 136.012,341.449 131.5,339.5C 156.15,337.874 180.484,334.874 204.5,330.5 Z"/></g>
<g><path style="opacity:1" fill="#102d2f" d="M 382.5,341.5 C 383.5,341.5 384.5,341.5 385.5,341.5C 387.833,341.5 390.167,341.5 392.5,341.5C 377.66,343.072 362.66,344.572 347.5,346C 331.504,346.685 315.504,347.185 299.5,347.5C 307.346,346.703 315.346,346.036 323.5,345.5C 329.181,345.365 334.848,345.032 340.5,344.5C 347.67,344.093 354.67,343.426 361.5,342.5C 368.687,342.825 375.687,342.491 382.5,341.5 Z"/></g>
<g><path style="opacity:0.998" fill="#1a2738" d="M 145.5,343.5 C 166.404,346.262 187.404,347.595 208.5,347.5C 224.992,348.497 241.658,348.83 258.5,348.5C 258.5,349.167 258.5,349.833 258.5,350.5C 241.82,350.167 225.153,350.501 208.5,351.5C 213.467,352.329 218.467,352.829 223.5,353C 215.833,353.667 208.167,353.667 200.5,353C 200.833,352.667 201.167,352.333 201.5,352C 198.833,351 198.833,350 201.5,349C 190.833,348.667 180.167,348.333 169.5,348C 161.257,347.158 153.257,345.658 145.5,343.5 Z"/></g>
</svg>
